<mxfile host="app.diagrams.net" modified="2023-06-13T16:58:53.431Z" agent="Mozilla/5.0 (Windows NT 10.0; Win64; x64) AppleWebKit/537.36 (KHTML, like Gecko) Chrome/114.0.0.0 Safari/537.36" etag="QutwtI0VU74JZj5jzRMQ" version="21.3.8" type="github">
  <diagram name="Page-1" id="F_eyK7_0Tx1WJTfc5wWX">
    <mxGraphModel dx="2390" dy="2360" grid="1" gridSize="10" guides="1" tooltips="1" connect="1" arrows="1" fold="1" page="1" pageScale="1" pageWidth="850" pageHeight="1100" math="0" shadow="0">
      <root>
        <mxCell id="0" />
        <mxCell id="1" parent="0" />
        <mxCell id="4ug8c87Ov4n_1aVAYhlx-71" style="edgeStyle=orthogonalEdgeStyle;rounded=0;orthogonalLoop=1;jettySize=auto;html=1;entryX=0.996;entryY=0.226;entryDx=0;entryDy=0;entryPerimeter=0;strokeWidth=3.5;" edge="1" parent="1" source="4ug8c87Ov4n_1aVAYhlx-64" target="4ug8c87Ov4n_1aVAYhlx-22">
          <mxGeometry relative="1" as="geometry" />
        </mxCell>
        <mxCell id="4ug8c87Ov4n_1aVAYhlx-64" value="" style="rounded=1;whiteSpace=wrap;html=1;" vertex="1" parent="1">
          <mxGeometry x="2290" y="-40" width="540" height="320" as="geometry" />
        </mxCell>
        <mxCell id="4ug8c87Ov4n_1aVAYhlx-70" value="" style="edgeStyle=orthogonalEdgeStyle;rounded=0;orthogonalLoop=1;jettySize=auto;html=1;entryX=0.519;entryY=1.007;entryDx=0;entryDy=0;entryPerimeter=0;jumpSize=6;strokeWidth=3.5;" edge="1" parent="1" source="4ug8c87Ov4n_1aVAYhlx-63" target="4ug8c87Ov4n_1aVAYhlx-64">
          <mxGeometry relative="1" as="geometry" />
        </mxCell>
        <mxCell id="4ug8c87Ov4n_1aVAYhlx-63" value="" style="rounded=1;whiteSpace=wrap;html=1;" vertex="1" parent="1">
          <mxGeometry x="2300" y="350" width="540" height="320" as="geometry" />
        </mxCell>
        <mxCell id="4ug8c87Ov4n_1aVAYhlx-22" value="" style="rounded=1;whiteSpace=wrap;html=1;" vertex="1" parent="1">
          <mxGeometry x="1208" y="-40" width="895" height="710" as="geometry" />
        </mxCell>
        <mxCell id="YD7AhUyMG9HWZQiR-062-5" value="" style="edgeStyle=orthogonalEdgeStyle;rounded=0;orthogonalLoop=1;jettySize=auto;html=1;" parent="1" source="YD7AhUyMG9HWZQiR-062-1" target="YD7AhUyMG9HWZQiR-062-3" edge="1">
          <mxGeometry relative="1" as="geometry" />
        </mxCell>
        <mxCell id="YD7AhUyMG9HWZQiR-062-10" value="" style="edgeStyle=orthogonalEdgeStyle;rounded=0;orthogonalLoop=1;jettySize=auto;html=1;" parent="1" source="YD7AhUyMG9HWZQiR-062-1" target="YD7AhUyMG9HWZQiR-062-8" edge="1">
          <mxGeometry relative="1" as="geometry" />
        </mxCell>
        <mxCell id="YD7AhUyMG9HWZQiR-062-12" value="" style="edgeStyle=orthogonalEdgeStyle;rounded=0;orthogonalLoop=1;jettySize=auto;html=1;" parent="1" source="YD7AhUyMG9HWZQiR-062-1" target="YD7AhUyMG9HWZQiR-062-11" edge="1">
          <mxGeometry relative="1" as="geometry" />
        </mxCell>
        <mxCell id="YD7AhUyMG9HWZQiR-062-1" value="Consensus" style="whiteSpace=wrap;html=1;aspect=fixed;" parent="1" vertex="1">
          <mxGeometry x="333" y="177.5" width="185" height="185" as="geometry" />
        </mxCell>
        <mxCell id="YD7AhUyMG9HWZQiR-062-4" value="" style="edgeStyle=orthogonalEdgeStyle;rounded=0;orthogonalLoop=1;jettySize=auto;html=1;" parent="1" source="YD7AhUyMG9HWZQiR-062-2" target="YD7AhUyMG9HWZQiR-062-1" edge="1">
          <mxGeometry relative="1" as="geometry" />
        </mxCell>
        <mxCell id="YD7AhUyMG9HWZQiR-062-2" value="STX" style="ellipse;whiteSpace=wrap;html=1;aspect=fixed;" parent="1" vertex="1">
          <mxGeometry x="140" y="230.5" width="80" height="80" as="geometry" />
        </mxCell>
        <mxCell id="YD7AhUyMG9HWZQiR-062-7" value="" style="edgeStyle=orthogonalEdgeStyle;rounded=0;orthogonalLoop=1;jettySize=auto;html=1;" parent="1" source="YD7AhUyMG9HWZQiR-062-3" target="YD7AhUyMG9HWZQiR-062-6" edge="1">
          <mxGeometry relative="1" as="geometry" />
        </mxCell>
        <mxCell id="YD7AhUyMG9HWZQiR-062-9" style="edgeStyle=orthogonalEdgeStyle;rounded=0;orthogonalLoop=1;jettySize=auto;html=1;entryX=1;entryY=0.5;entryDx=0;entryDy=0;" parent="1" source="YD7AhUyMG9HWZQiR-062-3" target="YD7AhUyMG9HWZQiR-062-8" edge="1">
          <mxGeometry relative="1" as="geometry">
            <Array as="points">
              <mxPoint x="670" y="500" />
            </Array>
          </mxGeometry>
        </mxCell>
        <mxCell id="YD7AhUyMG9HWZQiR-062-3" value="sBTC" style="ellipse;whiteSpace=wrap;html=1;aspect=fixed;" parent="1" vertex="1">
          <mxGeometry x="630" y="230" width="80" height="80" as="geometry" />
        </mxCell>
        <mxCell id="YD7AhUyMG9HWZQiR-062-6" value="BTC" style="ellipse;whiteSpace=wrap;html=1;aspect=fixed;" parent="1" vertex="1">
          <mxGeometry x="630" y="70" width="80" height="80" as="geometry" />
        </mxCell>
        <mxCell id="YD7AhUyMG9HWZQiR-062-14" value="" style="edgeStyle=orthogonalEdgeStyle;rounded=0;orthogonalLoop=1;jettySize=auto;html=1;startArrow=classic;startFill=1;" parent="1" source="YD7AhUyMG9HWZQiR-062-8" target="YD7AhUyMG9HWZQiR-062-13" edge="1">
          <mxGeometry relative="1" as="geometry" />
        </mxCell>
        <mxCell id="YD7AhUyMG9HWZQiR-062-8" value="Smart contract" style="rounded=1;whiteSpace=wrap;html=1;" parent="1" vertex="1">
          <mxGeometry x="333" y="470" width="187" height="60" as="geometry" />
        </mxCell>
        <mxCell id="YD7AhUyMG9HWZQiR-062-11" value="NODE" style="whiteSpace=wrap;html=1;" parent="1" vertex="1">
          <mxGeometry x="330" y="30" width="190" height="60" as="geometry" />
        </mxCell>
        <mxCell id="YD7AhUyMG9HWZQiR-062-13" value="MULTISIG" style="rhombus;whiteSpace=wrap;html=1;rounded=1;" parent="1" vertex="1">
          <mxGeometry x="140" y="460" width="80" height="80" as="geometry" />
        </mxCell>
        <mxCell id="YD7AhUyMG9HWZQiR-062-18" value="" style="edgeStyle=orthogonalEdgeStyle;rounded=0;orthogonalLoop=1;jettySize=auto;html=1;" parent="1" source="YD7AhUyMG9HWZQiR-062-15" target="YD7AhUyMG9HWZQiR-062-13" edge="1">
          <mxGeometry relative="1" as="geometry" />
        </mxCell>
        <mxCell id="YD7AhUyMG9HWZQiR-062-21" value="" style="edgeStyle=orthogonalEdgeStyle;rounded=0;orthogonalLoop=1;jettySize=auto;html=1;" parent="1" source="YD7AhUyMG9HWZQiR-062-15" target="YD7AhUyMG9HWZQiR-062-2" edge="1">
          <mxGeometry relative="1" as="geometry" />
        </mxCell>
        <mxCell id="YD7AhUyMG9HWZQiR-062-15" value="" style="image;aspect=fixed;perimeter=ellipsePerimeter;html=1;align=center;shadow=0;dashed=0;fontColor=#4277BB;labelBackgroundColor=default;fontSize=12;spacingTop=3;image=img/lib/ibm/blockchain/wallet.svg;" parent="1" vertex="1">
          <mxGeometry x="150" y="360" width="60" height="60" as="geometry" />
        </mxCell>
        <mxCell id="YD7AhUyMG9HWZQiR-062-19" value="" style="edgeStyle=orthogonalEdgeStyle;rounded=0;orthogonalLoop=1;jettySize=auto;html=1;" parent="1" source="YD7AhUyMG9HWZQiR-062-16" target="YD7AhUyMG9HWZQiR-062-13" edge="1">
          <mxGeometry relative="1" as="geometry" />
        </mxCell>
        <mxCell id="YD7AhUyMG9HWZQiR-062-16" value="" style="image;aspect=fixed;perimeter=ellipsePerimeter;html=1;align=center;shadow=0;dashed=0;fontColor=#4277BB;labelBackgroundColor=default;fontSize=12;spacingTop=3;image=img/lib/ibm/blockchain/wallet.svg;" parent="1" vertex="1">
          <mxGeometry x="150" y="580" width="60" height="60" as="geometry" />
        </mxCell>
        <mxCell id="YD7AhUyMG9HWZQiR-062-20" value="" style="edgeStyle=orthogonalEdgeStyle;rounded=0;orthogonalLoop=1;jettySize=auto;html=1;" parent="1" source="YD7AhUyMG9HWZQiR-062-17" target="YD7AhUyMG9HWZQiR-062-13" edge="1">
          <mxGeometry relative="1" as="geometry" />
        </mxCell>
        <mxCell id="YD7AhUyMG9HWZQiR-062-17" value="" style="image;aspect=fixed;perimeter=ellipsePerimeter;html=1;align=center;shadow=0;dashed=0;fontColor=#4277BB;labelBackgroundColor=default;fontSize=12;spacingTop=3;image=img/lib/ibm/blockchain/wallet.svg;" parent="1" vertex="1">
          <mxGeometry x="30" y="470" width="60" height="60" as="geometry" />
        </mxCell>
        <mxCell id="4ug8c87Ov4n_1aVAYhlx-1" value="" style="edgeStyle=orthogonalEdgeStyle;rounded=0;orthogonalLoop=1;jettySize=auto;html=1;startArrow=classic;startFill=1;" edge="1" parent="1" source="4ug8c87Ov4n_1aVAYhlx-4" target="4ug8c87Ov4n_1aVAYhlx-9">
          <mxGeometry relative="1" as="geometry" />
        </mxCell>
        <mxCell id="4ug8c87Ov4n_1aVAYhlx-2" value="" style="edgeStyle=orthogonalEdgeStyle;rounded=0;orthogonalLoop=1;jettySize=auto;html=1;" edge="1" parent="1" source="4ug8c87Ov4n_1aVAYhlx-4" target="4ug8c87Ov4n_1aVAYhlx-12">
          <mxGeometry relative="1" as="geometry" />
        </mxCell>
        <mxCell id="4ug8c87Ov4n_1aVAYhlx-3" value="" style="edgeStyle=orthogonalEdgeStyle;rounded=0;orthogonalLoop=1;jettySize=auto;html=1;" edge="1" parent="1" source="4ug8c87Ov4n_1aVAYhlx-4" target="4ug8c87Ov4n_1aVAYhlx-13">
          <mxGeometry relative="1" as="geometry" />
        </mxCell>
        <mxCell id="4ug8c87Ov4n_1aVAYhlx-4" value="Consensus" style="whiteSpace=wrap;html=1;aspect=fixed;" vertex="1" parent="1">
          <mxGeometry x="1563" y="247.5" width="185" height="185" as="geometry" />
        </mxCell>
        <mxCell id="4ug8c87Ov4n_1aVAYhlx-5" value="" style="edgeStyle=orthogonalEdgeStyle;rounded=0;orthogonalLoop=1;jettySize=auto;html=1;" edge="1" parent="1" source="4ug8c87Ov4n_1aVAYhlx-6" target="4ug8c87Ov4n_1aVAYhlx-4">
          <mxGeometry relative="1" as="geometry" />
        </mxCell>
        <mxCell id="4ug8c87Ov4n_1aVAYhlx-6" value="STX" style="ellipse;whiteSpace=wrap;html=1;aspect=fixed;" vertex="1" parent="1">
          <mxGeometry x="1370" y="300.5" width="80" height="80" as="geometry" />
        </mxCell>
        <mxCell id="4ug8c87Ov4n_1aVAYhlx-7" value="" style="edgeStyle=orthogonalEdgeStyle;rounded=0;orthogonalLoop=1;jettySize=auto;html=1;" edge="1" parent="1" source="4ug8c87Ov4n_1aVAYhlx-9" target="4ug8c87Ov4n_1aVAYhlx-10">
          <mxGeometry relative="1" as="geometry" />
        </mxCell>
        <mxCell id="4ug8c87Ov4n_1aVAYhlx-8" style="edgeStyle=orthogonalEdgeStyle;rounded=0;orthogonalLoop=1;jettySize=auto;html=1;entryX=1;entryY=0.5;entryDx=0;entryDy=0;" edge="1" parent="1" source="4ug8c87Ov4n_1aVAYhlx-9" target="4ug8c87Ov4n_1aVAYhlx-12">
          <mxGeometry relative="1" as="geometry">
            <Array as="points">
              <mxPoint x="1900" y="570" />
            </Array>
          </mxGeometry>
        </mxCell>
        <mxCell id="4ug8c87Ov4n_1aVAYhlx-9" value="sBTC" style="ellipse;whiteSpace=wrap;html=1;aspect=fixed;" vertex="1" parent="1">
          <mxGeometry x="1860" y="300" width="80" height="80" as="geometry" />
        </mxCell>
        <mxCell id="4ug8c87Ov4n_1aVAYhlx-10" value="BTC" style="ellipse;whiteSpace=wrap;html=1;aspect=fixed;" vertex="1" parent="1">
          <mxGeometry x="1860" y="140" width="80" height="80" as="geometry" />
        </mxCell>
        <mxCell id="4ug8c87Ov4n_1aVAYhlx-11" value="" style="edgeStyle=orthogonalEdgeStyle;rounded=0;orthogonalLoop=1;jettySize=auto;html=1;startArrow=classic;startFill=1;" edge="1" parent="1" source="4ug8c87Ov4n_1aVAYhlx-12" target="4ug8c87Ov4n_1aVAYhlx-17">
          <mxGeometry relative="1" as="geometry">
            <mxPoint x="1450.0000000000005" y="570" as="targetPoint" />
          </mxGeometry>
        </mxCell>
        <mxCell id="4ug8c87Ov4n_1aVAYhlx-12" value="Aggregator" style="rounded=1;whiteSpace=wrap;html=1;" vertex="1" parent="1">
          <mxGeometry x="1561" y="540" width="187" height="60" as="geometry" />
        </mxCell>
        <mxCell id="4ug8c87Ov4n_1aVAYhlx-13" value="NODE" style="whiteSpace=wrap;html=1;" vertex="1" parent="1">
          <mxGeometry x="1560" y="100" width="190" height="60" as="geometry" />
        </mxCell>
        <mxCell id="4ug8c87Ov4n_1aVAYhlx-16" value="" style="edgeStyle=orthogonalEdgeStyle;rounded=0;orthogonalLoop=1;jettySize=auto;html=1;" edge="1" parent="1" source="4ug8c87Ov4n_1aVAYhlx-17" target="4ug8c87Ov4n_1aVAYhlx-6">
          <mxGeometry relative="1" as="geometry" />
        </mxCell>
        <mxCell id="4ug8c87Ov4n_1aVAYhlx-17" value="" style="image;aspect=fixed;perimeter=ellipsePerimeter;html=1;align=center;shadow=0;dashed=0;fontColor=#4277BB;labelBackgroundColor=default;fontSize=12;spacingTop=3;image=img/lib/ibm/blockchain/wallet.svg;" vertex="1" parent="1">
          <mxGeometry x="1380" y="540" width="60" height="60" as="geometry" />
        </mxCell>
        <mxCell id="4ug8c87Ov4n_1aVAYhlx-39" value="Mempool" style="whiteSpace=wrap;html=1;aspect=fixed;" vertex="1" parent="1">
          <mxGeometry x="2390" y="72.5" width="185" height="185" as="geometry" />
        </mxCell>
        <mxCell id="4ug8c87Ov4n_1aVAYhlx-44" value="" style="edgeStyle=orthogonalEdgeStyle;rounded=0;orthogonalLoop=1;jettySize=auto;html=1;" edge="1" parent="1" source="4ug8c87Ov4n_1aVAYhlx-40" target="4ug8c87Ov4n_1aVAYhlx-39">
          <mxGeometry relative="1" as="geometry">
            <Array as="points">
              <mxPoint x="2595" y="228" />
              <mxPoint x="2595" y="228" />
            </Array>
          </mxGeometry>
        </mxCell>
        <mxCell id="4ug8c87Ov4n_1aVAYhlx-40" value="Tx bundle" style="rounded=1;whiteSpace=wrap;html=1;" vertex="1" parent="1">
          <mxGeometry x="2635" y="197.5" width="120" height="60" as="geometry" />
        </mxCell>
        <mxCell id="4ug8c87Ov4n_1aVAYhlx-43" value="" style="edgeStyle=orthogonalEdgeStyle;rounded=0;orthogonalLoop=1;jettySize=auto;html=1;" edge="1" parent="1" source="4ug8c87Ov4n_1aVAYhlx-42" target="4ug8c87Ov4n_1aVAYhlx-40">
          <mxGeometry relative="1" as="geometry" />
        </mxCell>
        <mxCell id="4ug8c87Ov4n_1aVAYhlx-42" value="Operations" style="rounded=1;whiteSpace=wrap;html=1;" vertex="1" parent="1">
          <mxGeometry x="2635" y="70" width="120" height="60" as="geometry" />
        </mxCell>
        <mxCell id="4ug8c87Ov4n_1aVAYhlx-46" value="Smart Contract account" style="whiteSpace=wrap;html=1;aspect=fixed;" vertex="1" parent="1">
          <mxGeometry x="2390" y="437.5" width="185" height="185" as="geometry" />
        </mxCell>
        <mxCell id="4ug8c87Ov4n_1aVAYhlx-59" value="" style="edgeStyle=orthogonalEdgeStyle;rounded=0;orthogonalLoop=1;jettySize=auto;html=1;" edge="1" parent="1" source="4ug8c87Ov4n_1aVAYhlx-51" target="4ug8c87Ov4n_1aVAYhlx-46">
          <mxGeometry relative="1" as="geometry" />
        </mxCell>
        <mxCell id="4ug8c87Ov4n_1aVAYhlx-51" value="Multi sig" style="rounded=1;whiteSpace=wrap;html=1;" vertex="1" parent="1">
          <mxGeometry x="2635" y="437.5" width="135" height="30" as="geometry" />
        </mxCell>
        <mxCell id="4ug8c87Ov4n_1aVAYhlx-60" value="" style="edgeStyle=orthogonalEdgeStyle;rounded=0;orthogonalLoop=1;jettySize=auto;html=1;" edge="1" parent="1" source="4ug8c87Ov4n_1aVAYhlx-56" target="4ug8c87Ov4n_1aVAYhlx-46">
          <mxGeometry relative="1" as="geometry" />
        </mxCell>
        <mxCell id="4ug8c87Ov4n_1aVAYhlx-56" value="Send receive" style="rounded=1;whiteSpace=wrap;html=1;" vertex="1" parent="1">
          <mxGeometry x="2635" y="487.5" width="135" height="30" as="geometry" />
        </mxCell>
        <mxCell id="4ug8c87Ov4n_1aVAYhlx-61" value="" style="edgeStyle=orthogonalEdgeStyle;rounded=0;orthogonalLoop=1;jettySize=auto;html=1;" edge="1" parent="1" source="4ug8c87Ov4n_1aVAYhlx-57" target="4ug8c87Ov4n_1aVAYhlx-46">
          <mxGeometry relative="1" as="geometry" />
        </mxCell>
        <mxCell id="4ug8c87Ov4n_1aVAYhlx-57" value="operations" style="rounded=1;whiteSpace=wrap;html=1;" vertex="1" parent="1">
          <mxGeometry x="2635" y="537.5" width="135" height="30" as="geometry" />
        </mxCell>
        <mxCell id="4ug8c87Ov4n_1aVAYhlx-62" value="" style="edgeStyle=orthogonalEdgeStyle;rounded=0;orthogonalLoop=1;jettySize=auto;html=1;" edge="1" parent="1" source="4ug8c87Ov4n_1aVAYhlx-58" target="4ug8c87Ov4n_1aVAYhlx-46">
          <mxGeometry relative="1" as="geometry" />
        </mxCell>
        <mxCell id="4ug8c87Ov4n_1aVAYhlx-58" value="signature" style="rounded=1;whiteSpace=wrap;html=1;" vertex="1" parent="1">
          <mxGeometry x="2635" y="592.5" width="135" height="30" as="geometry" />
        </mxCell>
        <mxCell id="4ug8c87Ov4n_1aVAYhlx-65" value="&lt;h1&gt;AGGREGATOR VAULT&lt;/h1&gt;" style="text;html=1;strokeColor=none;fillColor=none;spacing=5;spacingTop=-20;whiteSpace=wrap;overflow=hidden;rounded=0;" vertex="1" parent="1">
          <mxGeometry x="1290" width="190" height="120" as="geometry" />
        </mxCell>
        <mxCell id="4ug8c87Ov4n_1aVAYhlx-66" value="&lt;h1&gt;MEMPOOL&lt;/h1&gt;" style="text;html=1;strokeColor=none;fillColor=none;spacing=5;spacingTop=-20;whiteSpace=wrap;overflow=hidden;rounded=0;" vertex="1" parent="1">
          <mxGeometry x="2310" width="310" height="40" as="geometry" />
        </mxCell>
        <mxCell id="4ug8c87Ov4n_1aVAYhlx-69" value="&lt;h1&gt;ACCOUNT&lt;/h1&gt;" style="text;html=1;strokeColor=none;fillColor=none;spacing=5;spacingTop=-20;whiteSpace=wrap;overflow=hidden;rounded=0;" vertex="1" parent="1">
          <mxGeometry x="2325" y="392.5" width="310" height="40" as="geometry" />
        </mxCell>
      </root>
    </mxGraphModel>
  </diagram>
</mxfile>
